<svg width="48" height="48" viewBox="0 0 48 48" fill="none" xmlns="http://www.w3.org/2000/svg">
  <!-- Shadow/Base -->
  <ellipse cx="24" cy="42" rx="16" ry="4" fill="#000000" opacity="0.15"/>

  <!-- Van Body Main -->
  <g id="van-body">
    <!-- Main cargo area -->
    <rect x="12" y="8" width="24" height="28" rx="2" fill="#2563EB" stroke="#1E40AF" stroke-width="1.5"/>

    <!-- Cabin/Windscreen area -->
    <path d="M 14 8 L 14 4 Q 14 2 16 2 L 32 2 Q 34 2 34 4 L 34 8" fill="#60A5FA" stroke="#1E40AF" stroke-width="1.5"/>

    <!-- Windscreen glass -->
    <path d="M 16 3 L 16 6 L 32 6 L 32 3" fill="#93C5FD" stroke="#3B82F6" stroke-width="0.5"/>

    <!-- Left side mirror -->
    <rect x="8" y="10" width="4" height="6" rx="1" fill="#1E40AF" stroke="#1E3A8A" stroke-width="1"/>
    <circle cx="9.5" cy="13" r="1.5" fill="#60A5FA"/>

    <!-- Right side mirror -->
    <rect x="36" y="10" width="4" height="6" rx="1" fill="#1E40AF" stroke="#1E3A8A" stroke-width="1"/>
    <circle cx="38.5" cy="13" r="1.5" fill="#60A5FA"/>

    <!-- Cargo area details/sections -->
    <line x1="14" y1="18" x2="34" y2="18" stroke="#1E40AF" stroke-width="1" opacity="0.5"/>
    <line x1="14" y1="26" x2="34" y2="26" stroke="#1E40AF" stroke-width="1" opacity="0.5"/>

    <!-- Door lines -->
    <line x1="23.5" y1="12" x2="23.5" y2="35" stroke="#1E40AF" stroke-width="1.5" stroke-dasharray="2,2"/>

    <!-- Rear bumper -->
    <rect x="13" y="35" width="22" height="2" rx="1" fill="#1E3A8A"/>

    <!-- Headlights (front) -->
    <circle cx="17" cy="4" r="1.2" fill="#FCD34D" opacity="0.9"/>
    <circle cx="31" cy="4" r="1.2" fill="#FCD34D" opacity="0.9"/>

    <!-- Taillights (rear) -->
    <rect x="14" y="36" width="3" height="1.5" rx="0.5" fill="#EF4444"/>
    <rect x="31" y="36" width="3" height="1.5" rx="0.5" fill="#EF4444"/>

    <!-- Direction indicator (arrow pointing up/forward) -->
    <g id="direction-arrow">
      <path d="M 24 14 L 24 8 M 24 8 L 21 11 M 24 8 L 27 11" stroke="#FFFFFF" stroke-width="2" stroke-linecap="round" stroke-linejoin="round"/>
    </g>

    <!-- Status indicator dot (for tracking status) -->
    <circle cx="24" cy="24" r="3" fill="#10B981" stroke="#FFFFFF" stroke-width="1.5"/>
    <circle cx="24" cy="24" r="1.5" fill="#FFFFFF"/>
  </g>

  <!-- GPS pulse effect (optional animation ring) -->
  <circle cx="24" cy="24" r="14" stroke="#3B82F6" stroke-width="1" fill="none" opacity="0.3">
    <animate attributeName="r" from="10" to="18" dur="2s" repeatCount="indefinite"/>
    <animate attributeName="opacity" from="0.6" to="0" dur="2s" repeatCount="indefinite"/>
  </circle>
</svg>
